<?xml version="1.0" encoding="utf-8"?>
<!-- Generator: Adobe Illustrator 23.1.0, SVG Export Plug-In . SVG Version: 6.00 Build 0)  -->
<svg version="1.1" id="Слой_1" xmlns="http://www.w3.org/2000/svg" xmlns:xlink="http://www.w3.org/1999/xlink" x="0px" y="0px"
	 viewBox="0 0 611.6 703" style="enable-background:new 0 0 611.6 703;" xml:space="preserve">
<style type="text/css">
	.st0{fill:#FFFFFF;}
</style>
<title>Монтажная область 5</title>
<polygon class="st0" points="559.1,386.3 559.1,418.3 511.6,431.6 362.6,473.1 363.3,584 363.6,633.9 315.6,647.1 215.1,674.8 
	132.8,697.5 132.8,665.4 162.6,657.2 162.6,679.9 185.6,650.9 207.6,644.8 307.4,617.3 333.2,610.2 333.1,583.4 332.1,449.5 
	497,403.6 498.4,403.2 528.9,420.6 528.9,394.7 "/>
<polygon class="st0" points="611.6,6.4 611.3,91.2 611,191.7 610.8,241.4 562.8,254.3 559.1,255.3 559.1,382 528.9,358 528.9,231.4 
	554.8,224.5 580.6,217.5 580.7,190.8 581,107.1 581.1,84.2 607.7,37.6 581.2,44.6 581.3,14.5 "/>
<polygon class="st0" points="573.1,16.6 542.8,54.8 526.9,59 156.7,157.2 79.6,177.6 146.9,220.5 162.6,230.5 162.6,603.2 
	132.8,655.4 132.8,247.8 131,246.7 6,167.1 149.3,129.1 529.6,28.2 "/>
<path class="st0" d="M295,257.9l-18.8,5.1l2.2,0.4l-1.9,0.5l18.5,2.9v47.7l-14.5,10.5l2.6-0.9l-2.4,1.7l14.4-4.7l198.7-50.7v89.9
	c-38-21.7-65.3-37.5-66.2-37.9l59.8,47.6L297,422.9l1.1,160.7l-99.7,27.5c35.5-62.3,66.3-115.9,66.3-115.9l-66.9,84.1V212.2
	l-0.3-0.2v-0.7l-30.8-19.6l368.5-97.7c-29.8,52.2-53.8,93.9-54.5,95.2L546,107l-0.3,83.7L295,257.9z"/>
</svg>
