<?xml version="1.0" encoding="utf-8"?>
<!-- Generator: Adobe Illustrator 23.1.0, SVG Export Plug-In . SVG Version: 6.00 Build 0)  -->
<svg version="1.1" id="Слой_1" xmlns="http://www.w3.org/2000/svg" xmlns:xlink="http://www.w3.org/1999/xlink" x="0px" y="0px"
	 viewBox="0 0 250 250" style="enable-background:new 0 0 250 250;" xml:space="preserve">
<style type="text/css">
	.st0{fill:#FFFFFF;}
	.st1{fill:#0967D3;}
</style>
<g>
	<title>Монтажная область 5</title>
	<polygon class="st0" points="-253.3,159.8 -253.3,191.8 -300.8,205.1 -449.8,246.6 -449.1,357.5 -448.8,407.4 -496.8,420.6 
		-597.3,448.3 -679.6,471 -679.6,438.9 -649.8,430.7 -649.8,453.4 -626.8,424.4 -604.8,418.3 -505,390.8 -479.2,383.7 -479.3,356.9 
		-480.3,223 -315.4,177.1 -314,176.7 -283.5,194.1 -283.5,168.2 	"/>
	<polygon class="st0" points="-200.8,-220.1 -201.1,-135.3 -201.4,-34.8 -201.6,14.9 -249.6,27.8 -253.3,28.8 -253.3,155.5 
		-283.5,131.5 -283.5,4.9 -257.6,-2 -231.8,-9 -231.7,-35.7 -231.4,-119.4 -231.3,-142.3 -204.7,-188.9 -231.2,-181.9 -231.1,-212 	
		"/>
	<polygon class="st0" points="-239.3,-209.9 -269.6,-171.7 -285.5,-167.5 -655.7,-69.3 -732.8,-48.9 -665.5,-6 -649.8,4 
		-649.8,376.7 -679.6,428.9 -679.6,21.3 -681.4,20.2 -806.4,-59.4 -663.1,-97.4 -282.8,-198.3 	"/>
	<path class="st0" d="M-517.4,31.4l-18.8,5.1l2.2,0.4l-1.9,0.5l18.5,2.9V88l-14.5,10.5l2.6-0.9l-2.4,1.7l14.4-4.7l198.7-50.7v89.9
		c-38-21.7-65.3-37.5-66.2-37.9l59.8,47.6l-190.4,52.9l1.1,160.7l-99.7,27.5c35.5-62.3,66.3-115.9,66.3-115.9l-66.9,84.1V-14.3
		l-0.3-0.2v-0.7l-30.8-19.6l368.5-97.7C-307-80.3-331-38.6-331.7-37.3l65.3-82.2l-0.3,83.7L-517.4,31.4z"/>
</g>
<g id="Слой_3">
	<path class="st1" d="M180.6,250H69.4C31.1,250,0,218.9,0,180.6V69.4C0,31.1,31.1,0,69.4,0h111.1C218.9,0,250,31.1,250,69.4v111.1
		C250,218.9,218.9,250,180.6,250z"/>
</g>
<g>
	<polygon class="st0" points="187.6,135.6 187.6,144 175,147.5 135.3,158.6 135.4,188.2 135.6,201.4 122.8,204.9 96,212.4 
		74.2,218.3 74.2,209.9 82.1,207.6 82.1,213.6 88.2,206 94,204.3 120.6,196.9 127.5,195.1 127.4,187.9 127.2,152.4 171.1,140.1 
		171.4,140 179.6,144.6 179.6,137.8 	"/>
	<polygon class="st0" points="201.5,34.3 201.5,56.9 201.4,83.8 201.4,96.9 188.6,100.4 187.6,100.6 187.6,134.3 179.6,127.9 
		179.6,94.3 186.4,92.4 193.3,90.6 193.3,83.5 193.5,61.1 193.5,55.1 200.6,42.6 193.5,44.6 193.5,36.5 	"/>
	<polygon class="st0" points="191.3,37.1 183.2,47.2 179,48.3 80.4,74.4 60,80 77.9,91.4 82.1,94 82.1,193.2 74.2,207.1 74.2,98.6 
		73.6,98.3 40.3,77.1 78.5,67.1 179.7,40.1 	"/>
	<path class="st0" d="M117.2,101.3l-5,1.4l0.6,0.1l-0.6,0.1l4.9,0.8v12.6l-3.9,2.8l0.7-0.3l-0.7,0.4l3.9-1.3l52.9-13.5v23.9
		c-10.1-5.8-17.4-10-17.6-10.1l16,12.6l-50.6,14.3l0.3,42.8l-26.5,7.4c9.4-16.5,17.6-30.8,17.6-30.8l-17.8,22.2V89.2h-0.1V89
		l-8.2-5.3l98.1-26c-7.9,13.9-14.3,25-14.4,25.3L184,61.1l-0.1,22.2L117.2,101.3z"/>
</g>
</svg>
