<?xml version="1.0" encoding="utf-8"?>
<!-- Generator: Adobe Illustrator 23.1.0, SVG Export Plug-In . SVG Version: 6.00 Build 0)  -->
<svg version="1.1" id="Слой_1" xmlns="http://www.w3.org/2000/svg" xmlns:xlink="http://www.w3.org/1999/xlink" x="0px" y="0px"
	 viewBox="0 0 3708 1000" style="enable-background:new 0 0 3708 1000;" xml:space="preserve">
<style type="text/css">
	.st0{fill:#E6E6E8;}
	.st1{fill:none;}
	.st2{fill:none;stroke:#D3D3D3;stroke-width:45;stroke-linecap:round;stroke-miterlimit:10;}
	.st3{fill:none;stroke:#D3D3D3;stroke-width:55;stroke-linecap:round;stroke-miterlimit:10;}
	.st4{fill:url(#SVGID_1_);stroke:url(#SVGID_2_);stroke-miterlimit:10;}
	.st5{fill:none;stroke:#CECECE;stroke-width:5;stroke-linecap:round;stroke-miterlimit:10;}
	.st6{fill:none;stroke:#F26BB2;stroke-width:7;stroke-miterlimit:10;}
	.st7{fill:#D8D8D8;}
	.st8{fill:#CECECE;}
	.st9{fill:none;stroke:#C6C6C6;stroke-width:15;stroke-linecap:round;stroke-miterlimit:10;}
	.st10{fill:#C6C6C6;}
	.st11{fill:none;stroke:#000000;stroke-width:3;stroke-miterlimit:10;}
	.st12{fill:url(#SVGID_3_);stroke:url(#SVGID_4_);stroke-miterlimit:10;}
	.st13{fill:url(#SVGID_5_);stroke:url(#SVGID_6_);stroke-miterlimit:10;}
	.st14{fill:url(#SVGID_7_);stroke:url(#SVGID_8_);stroke-miterlimit:10;}
	.st15{fill:url(#SVGID_9_);stroke:url(#SVGID_10_);stroke-miterlimit:10;}
	.st16{fill:url(#SVGID_11_);stroke:url(#SVGID_12_);stroke-miterlimit:10;}
	.st17{fill:url(#SVGID_13_);stroke:url(#SVGID_14_);stroke-miterlimit:10;}
	.st18{fill:url(#SVGID_15_);stroke:url(#SVGID_16_);stroke-miterlimit:10;}
	.st19{fill:url(#SVGID_17_);stroke:url(#SVGID_18_);stroke-miterlimit:10;}
	.st20{fill:url(#SVGID_19_);stroke:url(#SVGID_20_);stroke-miterlimit:10;}
	.st21{fill:url(#SVGID_21_);stroke:url(#SVGID_22_);stroke-miterlimit:10;}
	.st22{fill:url(#SVGID_23_);stroke:url(#SVGID_24_);stroke-miterlimit:10;}
</style>
<g id="ROUNDED_SQUARE">
</g>
<g id="Слой_4">
</g>
<g id="Слой_5">
</g>
<polygon class="st0" points="-2410.5,854.5 -2196,854 -2196,626 -2012,626 -1965,435 -2197,435 -2197,385 -1984,385 -1924.5,144.5 
	-2120.5,144.5 -2129.5,171.5 -2410.5,170.5 -2457.5,371.5 -2410.5,371.5 "/>
<polygon class="st1" points="-2441.5,170.5 -2489.5,371.5 -2468.5,371.5 -2420.5,170.5 "/>
<rect x="-2441.5" y="371.5" class="st1" width="21" height="483"/>
<polygon class="st1" points="-2151.5,144.5 -2130.5,144.5 -2139.5,170.5 -2160.5,170.5 "/>
<polygon class="st0" points="-2508.5,854.5 -2431.5,854.5 -2431.5,371.5 -2479.5,371.5 -2431.5,170.5 -2508.5,170.5 -2555.5,371.5 
	-2507.5,371.5 "/>
<polygon class="st0" points="-2217.5,144.5 -2227,172 -2151,172 -2141.5,144.5 "/>
<g>
	<path class="st0" d="M-1747.1,450.8h128.7v78.7h-128.7v115h-85.3V310.8h232.4v80.1h-147.1V450.8z"/>
	<path class="st0" d="M-1477.5,532.8c0,53.7,95.2,53.7,95.7,0v-222h85.3v222c-0.5,156.5-266.8,156.5-266.3,0v-222h85.3V532.8z"/>
	<path class="st0" d="M-1146.1,538.5h-15.1v106.1h-85.3V310.8h133.4c68.8,0,122.1,31.6,124,109.8c0,61.7-25,96.6-65.5,109.4
		l91,114.5h-105.1L-1146.1,538.5z M-1111.7,465.9c53.3,0,53.3-76.4,0-76.4h-49.5v76.4H-1111.7z"/>
	<path class="st0" d="M-942,310.8h80.1l80.6,142.4l28.3,66.9l2.4-0.5c-0.5,0-9-57.5-9.4-57.5V310.8h83.9v333.7h-85.3L-836.9,513
		l-29.2-66.9l-2.4,0.5l10.8,64.6v133.4H-942V310.8z"/>
	<path class="st0" d="M-538.1,441.8h135.3v73.1h-135.3v50H-391v79.7h-232.4V310.8H-391V390h-147.1V441.8z"/>
	<path class="st0" d="M-160,310.8h98l-93.3,167.3L-62,644.5h-98l-58.4-113.6l-57,113.6H-374l93.8-166.4L-374,310.8h98.5l57,114.1
		L-160,310.8z"/>
</g>
<g id="Слой_6">
</g>
<path class="st2" d="M238.7,534.9c-8.4,6.8-28.3,19.5-42.5,15.6c-6.6-1.7-10.2-5.6-26.2-24.1c-26-30-27.8-32.8-34.2-35.8
	c-14.3-6.5-35.6-6-46.7,5.1c-10.9,11-3.6,24.5-14.5,42.3c-8.5,13.7-23.7,20.6-27.7,22.6c-6.6,3.4-12.5,5.4-16.7,6.6"/>
<path class="st2" d="M299.7,596.4c-6,7-13.9,17.9-18.3,32.8c-8.5,28.9,1.5,54.1,7.3,73.6c16.3,55.1,20.8,84.4,9.5,111.5
	c-14.4,34.4-51.5,48.8-59,51.7c-29.5,11.5-55.6,7.4-66.4,5.1"/>
<path class="st2" d="M416.6,629.6c-2.1,10.8-5.2,28-8.2,49.1c-7.8,56.1-9.5,103.5-9.5,103.5c-2,53.8,2.4,65.8-8.7,78.7
	c-15.5,17.9-44.6,18.4-66.4,16.1"/>
<path class="st2" d="M489.3,645.3c-0.4,11.6,0.1,23.8,2.2,36.4c3.4,20.3,8.2,26.9,13.9,53.2c4,18.9,6.1,28.3,5.1,36.4
	c-3,24.4-18.9,29.8-23.3,51.1c-2.3,11-1.7,27.2,11.7,49.5"/>
<path class="st2" d="M561.4,644.5c0.1,13.9,0.2,33.7,0.8,57.6c0.9,41.4,1.7,46.2,3,51.1c8.7,34.5,27,33.6,35,64.8
	c7.9,30.7-6.8,43.7,4.4,65.6c9.1,17.8,27.8,26.7,42.3,31.4"/>
<path class="st2" d="M633.6,640.9c0.8,9.6,2,24.4,3,42.3c2.7,49.3,0.3,52.6,3.6,70c4.9,25.9,14.6,43.7,29.2,70
	c14.4,26.1,21.6,39.3,35.7,50.3c23.3,18.3,50.1,20.9,64.2,21.1"/>
<path class="st2" d="M702,616.9c1.7,8.4,4.3,21.1,7.3,36.4c10.2,51.9,10.7,60.4,14.5,75.8c3.5,13.9,12.1,48.5,34.2,80.1
	c10.8,15.4,37.1,47.5,89.6,68.6"/>
<path class="st3" d="M747.3,573.1c18.4,7.5,41.3,15.6,68.5,21.9c39.9,9.2,60.2,13.6,77.3,2.2c15.3-10.3,24.6-30.4,23.3-48.1
	c-1.3-18.4-13.1-21.9-24-45.9c-2.5-5.6-15.4-35.1-9.5-67.8c7.1-39.1,37.4-62.2,47.3-69.2"/>
<linearGradient id="SVGID_1_" gradientUnits="userSpaceOnUse" x1="668.6314" y1="1400.126" x2="365.0023" y2="874.2252" gradientTransform="matrix(1 0 0 -1 0 1500)">
	<stop  offset="0.1641" style="stop-color:#E6E6E8"/>
	<stop  offset="1" style="stop-color:#D3D3D3"/>
</linearGradient>
<linearGradient id="SVGID_2_" gradientUnits="userSpaceOnUse" x1="206.4217" y1="364.4615" x2="794.4836" y2="364.4615">
	<stop  offset="0.1641" style="stop-color:#E6E6E8"/>
	<stop  offset="1" style="stop-color:#D3D3D3"/>
</linearGradient>
<path class="st4" d="M627.5,230.6c15.6-6.1,27-12.8,34.2-17.5c18.7-12,22.4-19.2,43-31.7c16.1-9.7,27.5-13.7,30.3-14.5
	c16-5.4,31.9-10.7,43.4-3.6c9.9,6.1,12,18.7,14.2,33.6c1.4,9.7,4.8,38.8-9.1,79.5c-4.4,12.7-11.7,30.4-24.5,49.9
	c-2,3-2.2,6.7-0.5,9.7c3.6,7,7.7,16,11.2,26.7c4,12.2,6.7,24.1,8.7,40.1c4.4,33.5,8.2,62.5,0,98.4c-4.2,17.9-9.5,30.2-16.7,46.2
	c-14.2,31.7-25.8,57.8-48.4,74.3c-15.2,11.2-30.8,14.4-71.4,17.5c-63.8,4.8-104.9,7.9-173-0.3c-57.9-7-86.9-10.5-115.9-23
	c-22.5-9.7-86.9-37.4-122.4-107.9c-8.6-17.3-34.2-69.9-18.6-134.8c7.8-32.3,25.1-55.6,44.5-82.8c20-28.1,40.3-48.9,55.8-63.1
	c-0.8-38.7-1.4-77.5-2.2-116.2c0.3-2.2,2.4-15.3,13.9-22.2c11-6.8,23.1-3,27.7-1.4c4.7,1.5,14.4,5.5,30.3,26.2
	c0.3,0.4,0.7,0.9,1.1,1.4c15.4,21,21.4,37,32.1,54c3.7,6,9.6,14.5,18.3,24.1c26.3,0.3,57.3,2.6,91.5,8.7
	C564.9,209,599.5,219.8,627.5,230.6z"/>
<path class="st5" d="M511.5,303.1c-5.5,0.7-17.8,3.1-29.2,12.8c-3.6,3.1-11.7,10.2-15.6,22.6c-4.5,14-1,25.9,0.3,29.8
	c1.2,3.5,6.2,16.7,20,25.1c13.1,8,32.5,10.7,48.4,0.8c16.3-10.2,19.7-27.6,20.4-31.7c3.1-18.7-6.2-32.7-9.1-36.8
	C534.5,307.9,515.6,303.8,511.5,303.1z"/>
<path class="st6" d="M344,137.3"/>
<path class="st7" d="M378,170.9c4,17.6-3.6,41.5-17.7,44.5c-14.4,3-31.2-16.8-34-33.7c-1-5.7-0.3-10.7,0.1-14.5
	c1.1-9.2,2.6-21.2,10.7-25.5c8.2-4.4,18.9,1.7,22.4,3.8C373.8,153.9,377.7,169.2,378,170.9z"/>
<path class="st7" d="M727.9,270.8c-7.3,23.2-35.1,29.7-49.1,20.8c-14-9-19.1-36.6-1.4-53.2c21.5-20.1,35.1-29.7,49.1-20.8
	C740.5,226.5,737.4,241.1,727.9,270.8z"/>
<path class="st5" d="M323.3,360.9c-6.7,0-11.8-1.4-13.6-1.9c-5-1.4-15.6-4.3-23-14.3c-5.6-7.8-6.3-15.5-6.8-21.3
	c-0.5-5.5-1.4-15.6,4-25.6c4.9-8.9,11.9-12.6,23.5-18.8c11.6-6.1,17.9-9.5,25.5-9.5c0.5,0,1.2,0,1.9,0.1
	c15.6,1.1,27.7,14.3,32.7,26.8c7.5,18.9-1,35.9-5,42.3c-6.9,11-16.3,16.3-20,18C336.7,359.5,330.1,360.9,323.3,360.9L323.3,360.9z"
	/>
<path class="st8" d="M330.8,284.8c-5.8-1.7-15.3,12.6-19.3,23c-1.5,3.9-6,16.1-1.1,28.4c1.2,3,3.7,9.2,7.7,9.5
	c6.9,0.5,13.1-17.5,13.9-19.7C337.4,309.2,337.3,286.8,330.8,284.8z"/>
<path class="st8" d="M513.8,321.2c-5.9-1-13.8,14.2-16.5,25c-1.1,4.2-4.2,16.7,2.2,28.3c1.5,2.7,4.7,8.6,8.7,8.5
	c7-0.2,11-18.9,11.5-21.1C523.3,344.6,520.5,322.4,513.8,321.2z"/>
<path class="st9" d="M375.1,461.3c-2.8,4.7-8,12.1-16.7,18.6c-5.2,3.8-17.8,13-35,11.3c-4.6-0.4-18.4-2.6-27-14.9
	c-3.9-5.6-6.6-18.9-6.9-22.5"/>
<path class="st9" d="M375.1,466.8c-0.4,3.2,2.1,12.2,4,17.3c4.2,10.6,14.9,15,22.7,18c8.2,3.2,19.5,3.7,41.5,4.7
	c19.1,0.8,25.1,0.2,32-3.1c7.1-3.4,11.9-8.3,14.8-11.8"/>
<path class="st10" d="M423.9,426.1c-3.2,16.3-28.1,37.2-46.5,33.7c-18.4-3.5-26.1-36.5-23-52.8c3.2-16.3,23.4-20.3,41.9-16.7
	C414.6,393.7,427,409.8,423.9,426.1z"/>
<path class="st11" d="M335.8,92.4"/>
<g>
	<linearGradient id="SVGID_3_" gradientUnits="userSpaceOnUse" x1="1244.3357" y1="330.6222" x2="1059.515" y2="650.7409">
		<stop  offset="0.1641" style="stop-color:#E6E6E8"/>
		<stop  offset="1" style="stop-color:#D3D3D3"/>
	</linearGradient>
	<linearGradient id="SVGID_4_" gradientUnits="userSpaceOnUse" x1="1074.4365" y1="507.4272" x2="1287.4229" y2="507.4272">
		<stop  offset="0.1641" style="stop-color:#E6E6E8"/>
		<stop  offset="1" style="stop-color:#D3D3D3"/>
	</linearGradient>
	<path class="st12" d="M1152.8,482.9h117.4v71.8h-117.4v104.9h-77.8V355.2h212v73.1h-134.2V482.9z"/>
	<linearGradient id="SVGID_5_" gradientUnits="userSpaceOnUse" x1="1521.0144" y1="347.3677" x2="1336.1936" y2="667.4868">
		<stop  offset="0.1641" style="stop-color:#E6E6E8"/>
		<stop  offset="1" style="stop-color:#D3D3D3"/>
	</linearGradient>
	<linearGradient id="SVGID_6_" gradientUnits="userSpaceOnUse" x1="1322.1104" y1="507.4272" x2="1535.0977" y2="507.4272">
		<stop  offset="0.1641" style="stop-color:#E6E6E8"/>
		<stop  offset="1" style="stop-color:#D3D3D3"/>
	</linearGradient>
	<path class="st13" d="M1400.4,474.7h123.4v66.6h-123.4V587h134.2v72.7h-212V355.2h212v72.2h-134.2V474.7z"/>
	<linearGradient id="SVGID_7_" gradientUnits="userSpaceOnUse" x1="1792.9344" y1="340.7581" x2="1600.4816" y2="674.0964">
		<stop  offset="0.1641" style="stop-color:#E6E6E8"/>
		<stop  offset="1" style="stop-color:#D3D3D3"/>
	</linearGradient>
	<linearGradient id="SVGID_8_" gradientUnits="userSpaceOnUse" x1="1574.9502" y1="507.4272" x2="1818.4658" y2="507.4272">
		<stop  offset="0.1641" style="stop-color:#E6E6E8"/>
		<stop  offset="1" style="stop-color:#D3D3D3"/>
	</linearGradient>
	<path class="st14" d="M1575.5,355.2h73.1l73.5,129.9l25.8,61.1l2.1-0.4c-0.4,0-8.2-52.5-8.6-52.5v-138h76.5v304.4h-77.8l-68.8-120
		l-26.7-61.1l-2.2,0.4l9.9,58.9v121.7h-77V355.2z"/>
	<linearGradient id="SVGID_9_" gradientUnits="userSpaceOnUse" x1="1980.1448" y1="376.6003" x2="1829.0789" y2="638.2542">
		<stop  offset="0.1641" style="stop-color:#E6E6E8"/>
		<stop  offset="1" style="stop-color:#D3D3D3"/>
	</linearGradient>
	<linearGradient id="SVGID_10_" gradientUnits="userSpaceOnUse" x1="1865.6279" y1="507.4272" x2="1943.5957" y2="507.4272">
		<stop  offset="0.1641" style="stop-color:#E6E6E8"/>
		<stop  offset="1" style="stop-color:#D3D3D3"/>
	</linearGradient>
	<path class="st15" d="M1943.1,659.6h-77V355.2h77V659.6z"/>
	<linearGradient id="SVGID_11_" gradientUnits="userSpaceOnUse" x1="2216.9055" y1="337.779" x2="2021.12" y2="676.8894">
		<stop  offset="0.1641" style="stop-color:#E6E6E8"/>
		<stop  offset="1" style="stop-color:#D3D3D3"/>
	</linearGradient>
	<linearGradient id="SVGID_12_" gradientUnits="userSpaceOnUse" x1="1990.751" y1="507.4272" x2="2248.1523" y2="507.4272">
		<stop  offset="0.1641" style="stop-color:#E6E6E8"/>
		<stop  offset="1" style="stop-color:#D3D3D3"/>
	</linearGradient>
	<path class="st16" d="M2151.2,355.2h95.9l-120.4,147.1l120,157.4h-97.6l-77.8-108.8l-2.6,3.4v105.3h-77.4V355.2h77.4v112.7
		L2151.2,355.2z"/>
	<linearGradient id="SVGID_13_" gradientUnits="userSpaceOnUse" x1="2429.2805" y1="372.931" x2="2273.9917" y2="641.899">
		<stop  offset="0.1641" style="stop-color:#E6E6E8"/>
		<stop  offset="1" style="stop-color:#D3D3D3"/>
	</linearGradient>
	<linearGradient id="SVGID_14_" gradientUnits="userSpaceOnUse" x1="2239.1177" y1="507.427" x2="2464.4739" y2="507.427">
		<stop  offset="0.1641" style="stop-color:#E6E6E8"/>
		<stop  offset="1" style="stop-color:#D3D3D3"/>
	</linearGradient>
	<path class="st17" d="M2288.4,563.3c30.5,37,97.6,38.7,99.8,6c0.9-17.2-27.1-27.1-52-30.5c-49-7.7-93.7-38.7-93.7-96.7
		c0-59.8,54.2-91.2,110.1-91.2c37,0,72.7,10.3,104.1,48.6l-50.3,38.7c-31.8-34-86.4-32.7-87.7,2.6c0.9,14.6,16.8,23.2,40.4,28.4
		c54.2,9.9,108.4,28.8,104.9,103.6c-2.6,58.9-64.5,91.2-120.4,91.2c-36.5,0-75.2-18.5-103.6-55L2288.4,563.3z"/>
	<linearGradient id="SVGID_15_" gradientUnits="userSpaceOnUse" x1="2694.2654" y1="371.4668" x2="2537.2988" y2="643.341">
		<stop  offset="0.1641" style="stop-color:#E6E6E8"/>
		<stop  offset="1" style="stop-color:#D3D3D3"/>
	</linearGradient>
	<linearGradient id="SVGID_16_" gradientUnits="userSpaceOnUse" x1="2489.1191" y1="507.427" x2="2742.5254" y2="507.427">
		<stop  offset="0.1641" style="stop-color:#E6E6E8"/>
		<stop  offset="1" style="stop-color:#D3D3D3"/>
	</linearGradient>
	<path class="st18" d="M2489.6,455.4c0-70.1,62.8-104.5,126-104.5S2742,385.7,2742,455.4v104.1c0,69.7-62.8,104.5-126,104.5
		s-126.4-34.8-126.4-104.5V455.4z M2566.6,559.5c0,22.4,24.9,33.1,49.4,33.1s49-11.2,49-33.1V455.4c0-23.6-25.4-34.4-50.3-34.4
		c-24.1,0-48.2,12-48.2,34.4V559.5z"/>
	<linearGradient id="SVGID_17_" gradientUnits="userSpaceOnUse" x1="2952.6865" y1="306.3477" x2="2775.8203" y2="612.6886">
		<stop  offset="0.1641" style="stop-color:#E6E6E8"/>
		<stop  offset="1" style="stop-color:#D3D3D3"/>
	</linearGradient>
	<linearGradient id="SVGID_18_" gradientUnits="userSpaceOnUse" x1="2746.0464" y1="506.9973" x2="3037.2847" y2="506.9973">
		<stop  offset="0.1641" style="stop-color:#E6E6E8"/>
		<stop  offset="1" style="stop-color:#D3D3D3"/>
	</linearGradient>
	<path class="st19" d="M2954,354.8h82.6l-109.6,304.4h-70.5l-109.6-304.4h82.6l47.7,148.8l13.8,72.2h1.3l13.8-71.8L2954,354.8z"/>
	<linearGradient id="SVGID_19_" gradientUnits="userSpaceOnUse" x1="3170.801" y1="376.6003" x2="3019.7351" y2="638.2542">
		<stop  offset="0.1641" style="stop-color:#E6E6E8"/>
		<stop  offset="1" style="stop-color:#D3D3D3"/>
	</linearGradient>
	<linearGradient id="SVGID_20_" gradientUnits="userSpaceOnUse" x1="3056.2842" y1="507.4272" x2="3134.252" y2="507.4272">
		<stop  offset="0.1641" style="stop-color:#E6E6E8"/>
		<stop  offset="1" style="stop-color:#D3D3D3"/>
	</linearGradient>
	<path class="st20" d="M3133.8,659.6h-77V355.2h77V659.6z"/>
	<linearGradient id="SVGID_21_" gradientUnits="userSpaceOnUse" x1="3368.8364" y1="374.0666" x2="3214.9512" y2="640.6035">
		<stop  offset="0.1641" style="stop-color:#E6E6E8"/>
		<stop  offset="1" style="stop-color:#D3D3D3"/>
	</linearGradient>
	<linearGradient id="SVGID_22_" gradientUnits="userSpaceOnUse" x1="3174.0967" y1="507.427" x2="3404.8958" y2="507.427">
		<stop  offset="0.1641" style="stop-color:#E6E6E8"/>
		<stop  offset="1" style="stop-color:#D3D3D3"/>
	</linearGradient>
	<path class="st21" d="M3404.2,595.6c-25.4,49.4-71.4,68.4-109.6,68.4c-59.8,0-120-34.8-120-104.1V455
		c0-68.8,60.2-104.1,121.3-104.1c37.4,0,82.6,15.9,107.1,70.1l-62.8,25.4c-20.6-37.8-88.6-29.2-88.6,8.6v104.9
		c0,36.5,68.8,46.9,85.6,4.7L3404.2,595.6z"/>
	<linearGradient id="SVGID_23_" gradientUnits="userSpaceOnUse" x1="3649.6455" y1="340.7581" x2="3457.1924" y2="674.0964">
		<stop  offset="0.1641" style="stop-color:#E6E6E8"/>
		<stop  offset="1" style="stop-color:#D3D3D3"/>
	</linearGradient>
	<linearGradient id="SVGID_24_" gradientUnits="userSpaceOnUse" x1="3431.6611" y1="507.4272" x2="3675.1768" y2="507.4272">
		<stop  offset="0.1641" style="stop-color:#E6E6E8"/>
		<stop  offset="1" style="stop-color:#D3D3D3"/>
	</linearGradient>
	<path class="st22" d="M3509.6,659.6h-77.4V355.2h77.4v115.2h87.7V355.2h77.4v304.4h-77.4V544.8h-87.7V659.6z"/>
</g>
</svg>
